<svg width="32" height="32" viewBox="0 0 32 32" fill="none" xmlns="http://www.w3.org/2000/svg">
<g id="gridicons:mail">
<path id="Vector" d="M24.2667 5.33337H5.06669C4.43017 5.33337 3.81972 5.61433 3.36963 6.11442C2.91954 6.61452 2.66669 7.2928 2.66669 8.00004V24C2.66669 24.7073 2.91954 25.3856 3.36963 25.8857C3.81972 26.3858 4.43017 26.6667 5.06669 26.6667H24.2667C24.9032 26.6667 25.5137 26.3858 25.9637 25.8857C26.4138 25.3856 26.6667 24.7073 26.6667 24V8.00004C26.6667 7.2928 26.4138 6.61452 25.9637 6.11442C25.5137 5.61433 24.9032 5.33337 24.2667 5.33337ZM24.2667 10.9814L14.6667 17.4907L5.06669 10.9814V8.00004H24.2667V10.9814Z" fill="white"/>
</g>
</svg>
