<?xml version="1.0" standalone="no"?>
<!DOCTYPE svg PUBLIC "-//W3C//DTD SVG 20010904//EN"
 "http://www.w3.org/TR/2001/REC-SVG-20010904/DTD/svg10.dtd">
<svg version="1.0" xmlns="http://www.w3.org/2000/svg"
 width="700.000000pt" height="700.000000pt" viewBox="0 0 700.000000 700.000000"
 preserveAspectRatio="xMidYMid meet">
<metadata>
Created by potrace 1.14, written by Peter Selinger 2001-2017
</metadata>
<g transform="translate(0.000000,700.000000) scale(0.100000,-0.100000)"
fill="#000000" stroke="none">
<path d="M934 6227 c-77 -16 -148 -91 -162 -170 -4 -23 -7 -1185 -6 -2582 1
-2813 -5 -2575 66 -2644 71 -70 -169 -64 2668 -64 l2565 -1 45 24 c50 26 82
58 107 110 16 33 17 216 17 2589 1 1972 -2 2563 -11 2595 -14 48 -71 111 -122
133 -33 14 -283 16 -2583 17 -1401 1 -2564 -2 -2584 -7z m1270 -1590 c6 -7 49
-45 96 -83 47 -38 90 -73 96 -79 6 -5 32 -28 59 -50 70 -58 117 -97 140 -119
11 -10 36 -30 55 -44 19 -15 37 -30 40 -33 5 -7 497 -419 701 -588 123 -101
146 -130 129 -160 -9 -18 -85 -86 -195 -176 -51 -42 -242 -202 -261 -220 -7
-5 -20 -17 -30 -25 -17 -13 -224 -186 -479 -400 -49 -41 -92 -77 -95 -81 -3
-3 -59 -50 -125 -104 -66 -55 -122 -103 -125 -107 -3 -4 -17 -11 -32 -17 -22
-8 -31 -6 -49 8 -23 18 -23 22 -23 255 l-1 236 25 23 c14 12 81 69 150 127
327 273 566 474 580 487 15 14 9 22 -67 83 -18 15 -174 145 -223 186 -23 20
-87 73 -141 119 -173 144 -297 250 -309 264 -13 15 -15 56 -15 251 1 228 2
233 23 251 25 19 58 18 76 -4z m2676 -1874 c13 -16 15 -50 15 -203 -1 -170 -2
-184 -21 -199 -18 -15 -84 -16 -667 -16 -587 0 -648 2 -663 17 -14 14 -16 41
-15 204 1 113 6 193 12 200 15 19 41 19 714 18 590 -2 610 -2 625 -21z"/>
</g>
</svg>
