<svg xmlns="http://www.w3.org/2000/svg" xmlns:xlink="http://www.w3.org/1999/xlink" width="49.611" height="45.731" viewBox="0 0 49.611 45.731">
  <defs>
    <filter id="paintbrush-solid" x="0" y="12.635" width="34.035" height="33.096" filterUnits="userSpaceOnUse">
      <feOffset dy="3" input="SourceAlpha"/>
      <feGaussianBlur stdDeviation="3" result="blur"/>
      <feFlood flood-opacity="0.161"/>
      <feComposite operator="in" in2="blur"/>
      <feComposite in="SourceGraphic"/>
    </filter>
  </defs>
  <g id="Group_64" data-name="Group 64" transform="translate(-333.336 -77)">
    <g id="Group_58" data-name="Group 58">
      <g id="Group_57" data-name="Group 57" transform="translate(-1872.591 -2894.636)">
        <path id="code-solid_1_" data-name="code-solid (1)" d="M8.861-.026A.721.721,0,0,0,7.97.469L5.091,10.547a.721.721,0,0,0,1.386.4L9.356.865a.721.721,0,0,0-.495-.891Zm1.813,2.7a.721.721,0,0,0,0,1.019l2.009,2.011L10.672,7.717a.721.721,0,0,0,1.019,1.019l2.52-2.52a.721.721,0,0,0,0-1.019l-2.52-2.52a.721.721,0,0,0-1.019,0Zm-6.9,0a.721.721,0,0,0-1.019,0L.236,5.2a.721.721,0,0,0,0,1.019l2.52,2.52A.721.721,0,1,0,3.775,7.715L1.763,5.706,3.775,3.7a.721.721,0,0,0,0-1.019Z" transform="translate(2229.566 2980.691)" fill="#2cda9d"/>
      </g>
      <path id="display-solid" d="M4.216,0A4.22,4.22,0,0,0,0,4.216V23.19a4.22,4.22,0,0,0,4.216,4.216H15.811l-.7,2.108H10.541a2.108,2.108,0,1,0,0,4.216H27.406a2.108,2.108,0,1,0,0-4.216H22.841l-.7-2.108H33.731a4.22,4.22,0,0,0,4.216-4.216V4.216A4.22,4.22,0,0,0,33.731,0ZM33.731,4.216V23.19H4.216V4.216Z" transform="translate(345 77)" fill="#fff"/>
      <g transform="matrix(1, 0, 0, 1, 333.34, 77)" filter="url(#paintbrush-solid)">
        <path id="paintbrush-solid-2" data-name="paintbrush-solid" d="M73.06,10.792a2.846,2.846,0,0,0,1.981-1.265l4.767-7.374a1.416,1.416,0,0,0-2.037-1.9L70.793,5.488a2.826,2.826,0,0,0-1.132,2.244Zm-.578.749-3.42-3.078A3.3,3.3,0,0,0,65.9,12.1a.935.935,0,0,1-.82,1.073h-.142a.943.943,0,0,0,0,1.887h4.246a3.3,3.3,0,0,0,3.3-3.3c0-.074,0-.147-.006-.221Z" transform="translate(89.03 33.7) rotate(180)" fill="#2cda9d"/>
      </g>
    </g>
  </g>
</svg>
